<?xml version="1.0" standalone="no"?>
<svg version="1.0" xmlns="http://www.w3.org/2000/svg"
 width="1672" height="941" viewBox="0 0 1672.000000 941.000000"
 preserveAspectRatio="xMidYMid meet">
<rect width="1672" height="941" fill="#ffffff"/>
<g transform="translate(0.000000,941.000000) scale(0.100000,-0.100000)"
fill="#04165a" stroke="none">
<path d="M8353 8093 c9 -2 23 -2 30 0 6 3 -1 5 -18 5 -16 0 -22 -2 -12 -5z
M8614 7865 c-4 -9 -3 -20 2 -24 5 -4 61 -17 124 -30 227 -46 453 -121 694
-233 104 -48 110 -49 123 -32 12 17 8 21 -54 53 -189 95 -429 182 -646 235
-195 48 -235 53 -243 31z M8240 7796 c0 -2 8 -10 18 -17 15 -13 16 -12 3 4
-13 16 -21 21 -21 13z M9705 7606 c-59 -25 -105 -104 -105 -176 0 -32 32 -100
56 -122 29 -25 89 -48 127 -48 46 0 118 39 144 78 61 92 23 228 -74 268 -41
17 -109 17 -148 0z M8255 7348 c-229 -118 -611 -320 -621 -329 -12 -10 -14
-2092 -2 -2104 4 -4 30 -4 57 0 l51 7 0 1013 0 1013 259 136 c142 75 263 136
270 136 7 0 11 -69 13 -226 l3 -227 280 -154 c154 -84 312 -170 350 -191 l70
-37 3 -737 2 -738 55 0 55 0 0 774 0 773 -237 128 c-131 70 -291 157 -355 193
l-118 65 0 266 c0 257 -4 291 -30 291 -3 0 -51 -23 -105 -52z M9937 7236 c-3
-8 26 -50 69 -102 42 -48 118 -146 169 -218 89 -124 225 -341 225 -358 0 -13
27 -9 39 6 10 12 -3 40 -69 145 -99 160 -218 326 -319 448 -73 88 -103 109
-114 79z M10478 6500 c-84 -45 -117 -159 -70 -247 6 -11 25 -32 42 -47 144
-121 350 38 271 209 -44 96 -151 133 -243 85z M7315 6063 c-88 -48 -241 -130
-340 -182 l-180 -96 -3 -504 -2 -503 26 6 c15 4 39 10 55 13 l29 5 2 457 3
456 230 122 c126 67 232 120 236 117 4 -2 8 -243 8 -536 1 -293 3 -533 4 -534
1 0 25 2 52 5 l50 6 3 628 c1 345 -1 627 -5 627 -5 -1 -80 -40 -168 -87z
M9240 5475 c0 -550 1 -585 18 -585 9 0 34 -3 55 -6 l37 -7 0 492 c0 361 3 491
11 491 10 0 90 -42 389 -205 l75 -41 3 -406 c3 -454 -5 -409 75 -424 l37 -6 0
454 0 454 -37 18 c-21 10 -168 89 -328 176 -159 86 -300 162 -312 169 l-23 12
0 -586z M8199 5676 c-80 -23 -142 -59 -200 -116 -102 -102 -120 -169 -117
-440 l3 -185 58 -3 57 -3 0 208 c0 197 1 211 24 258 30 65 77 111 146 143 79
37 239 43 337 14 75 -23 137 -69 175 -130 22 -35 23 -49 28 -262 l5 -225 58
-3 57 -3 0 216 c0 235 -7 272 -64 363 -33 52 -127 123 -204 153 -71 28 -288
37 -363 15z M6072 3483 c4 -600 4 -609 27 -683 69 -229 229 -380 481 -456 147
-44 465 -58 646 -29 341 55 548 221 626 502 21 75 22 98 26 676 l3 597 -100 0
-101 0 0 -57 c0 -32 -1 -294 -3 -583 -3 -579 -2 -565 -69 -693 -65 -122 -198
-215 -365 -254 -112 -26 -434 -26 -546 0 -164 39 -300 134 -360 253 -63 124
-61 104 -65 747 l-3 587 -100 0 -100 0 3 -607z M8960 3206 l0 -886 100 0 100
0 0 335 0 335 343 0 342 0 335 -335 335 -335 140 0 140 0 -337 337 c-186 186
-338 338 -338 339 0 1 34 7 76 14 266 42 442 192 490 418 39 187 -6 372 -120
485 -61 61 -168 118 -281 149 -78 22 -97 22 -702 26 l-623 3 0 -885z m1237
689 c134 -31 214 -89 258 -187 38 -84 40 -211 5 -303 -34 -88 -112 -163 -208
-198 -112 -41 -215 -48 -672 -45 l-415 3 -3 372 -2 372 97 4 c54 2 274 2 488
0 292 -3 406 -8 452 -18z M4067 4038 c-14 -24 -87 -160 -165 -303 -209 -389
-583 -1080 -678 -1253 -46 -83 -84 -155 -84 -157 0 -3 50 -4 110 -3 l111 3
150 275 c622 1138 663 1210 672 1207 5 -1 39 -59 76 -127 62 -116 431 -792
561 -1030 31 -58 83 -154 115 -213 31 -60 63 -111 69 -113 7 -3 57 -3 113 -2
l100 3 -79 145 c-84 153 -347 644 -668 1248 l-193 362 -93 0 -93 0 -24 -42z
M12437 3998 c-25 -46 -176 -328 -337 -628 -161 -300 -353 -657 -426 -793 -74
-136 -134 -250 -134 -253 0 -2 50 -3 111 -2 l110 3 105 195 c58 107 173 320
256 474 82 153 160 297 173 320 12 22 55 102 95 176 79 146 171 313 175 318 2
2 31 -50 65 -115 56 -104 132 -245 422 -773 40 -74 130 -240 198 -367 l125
-233 109 0 c99 0 108 1 101 18 -3 9 -64 123 -135 252 -166 303 -759 1412 -785
1467 -9 21 -17 23 -97 23 l-87 0 -44 -82z M3010 1838 c-23 -57 -80 -211 -80
-219 0 -21 29 -6 40 21 12 28 16 30 64 30 48 0 52 -2 63 -30 6 -17 19 -30 28
-30 12 0 15 5 10 18 -4 9 -25 65 -47 125 -41 109 -59 129 -78 85z m46 -89 c8
-24 14 -45 14 -46 0 -2 -16 -3 -35 -3 -19 0 -35 5 -35 10 0 24 26 90 34 87 5
-2 15 -23 22 -48z M3250 1734 l0 -124 40 0 c50 0 105 22 118 47 31 60 19 152
-24 179 -13 9 -49 18 -79 20 l-55 3 0 -125z m115 71 c55 -54 17 -171 -53 -163
-27 3 -27 4 -30 82 -2 44 -1 85 2 93 9 21 55 15 81 -12z M3562 1743 c-23 -65
-42 -121 -42 -125 0 -21 29 -4 40 22 11 28 16 30 62 30 46 0 50 -2 59 -30 7
-20 18 -30 31 -30 11 0 18 4 16 8 -1 4 -23 61 -47 125 -32 84 -49 117 -60 117
-12 0 -29 -32 -59 -117z m81 13 c8 -25 13 -47 9 -50 -10 -11 -62 -6 -62 5 0
22 23 89 31 89 4 0 14 -20 22 -44z M3834 1851 c-2 -2 -4 -58 -4 -123 0 -111 1
-118 20 -118 17 0 20 7 20 50 l0 50 48 0 c56 0 92 28 92 73 0 30 -31 67 -57
68 -10 0 -40 1 -66 2 -27 1 -51 0 -53 -2z m120 -37 c36 -35 12 -74 -46 -74
l-38 0 0 45 c0 45 0 45 34 45 19 0 42 -7 50 -16z M4100 1845 c0 -10 11 -15 35
-15 l35 0 0 -110 c0 -103 1 -110 20 -110 19 0 20 7 20 110 l0 110 40 0 c22 0
40 4 40 9 0 12 -52 21 -126 21 -50 0 -64 -3 -64 -15z M4530 1858 c0 -2 20 -57
44 -123 43 -121 64 -147 84 -108 18 32 82 226 78 231 -16 15 -37 -17 -61 -90
-15 -46 -31 -86 -35 -91 -3 -4 -21 35 -39 88 -26 75 -37 95 -52 95 -11 0 -19
-1 -19 -2z M4850 1736 l0 -127 75 2 c54 1 75 6 75 15 0 9 -18 14 -57 16 l-58
3 0 40 0 40 49 0 c70 0 73 23 4 27 l-53 3 0 35 0 35 58 3 c31 2 57 7 57 12 0
6 -10 10 -22 10 -13 0 -47 3 -75 6 l-53 7 0 -127z M5283 1853 c-17 -6 -18
-162 -2 -197 24 -52 123 -60 154 -12 22 33 17 211 -5 211 -12 0 -15 -17 -15
-91 0 -101 -10 -124 -55 -124 -44 0 -52 20 -51 119 1 89 -3 102 -26 94z M5570
1736 c0 -116 2 -127 18 -124 13 2 18 15 20 51 3 42 6 47 27 47 19 0 30 -11 50
-50 18 -35 31 -50 46 -50 19 0 19 2 -7 50 l-27 50 21 23 c27 29 29 78 3 101
-11 10 -44 19 -85 23 l-66 6 0 -127z m125 70 c25 -38 5 -66 -45 -66 l-40 0 0
45 c0 45 0 45 35 45 26 0 39 -6 50 -24z M5860 1732 l0 -124 64 4 c45 3 71 10
85 22 28 26 27 70 -1 91 -21 15 -22 17 -5 26 11 7 17 22 17 45 0 31 -4 37 -36
50 -19 8 -55 14 -80 13 l-44 -3 0 -124z m114 82 c9 -8 16 -19 16 -24 0 -18
-33 -40 -61 -40 -27 0 -29 2 -29 40 0 38 2 40 29 40 16 0 37 -7 45 -16z m-10
-94 c18 -6 26 -17 26 -33 0 -32 -18 -47 -57 -47 -32 0 -33 1 -33 45 0 49 11
55 64 35z M6216 1852 c-6 -10 -64 -154 -82 -204 -12 -36 -12 -38 7 -38 13 0
24 10 30 30 10 28 14 30 60 30 47 0 51 -2 60 -30 7 -20 18 -30 31 -30 15 0 18
4 13 18 -3 9 -23 60 -42 112 -20 52 -41 101 -46 108 -11 14 -24 16 -31 4z m47
-144 c-2 -5 -18 -8 -35 -8 -27 0 -30 3 -24 25 3 13 11 37 17 52 l11 28 17 -45
c10 -25 16 -48 14 -52z M6447 1853 c-4 -3 -7 -60 -7 -125 0 -111 1 -118 20
-118 18 0 20 7 20 85 0 50 4 85 10 85 6 0 10 -4 10 -9 0 -19 101 -161 115
-161 13 0 15 20 15 125 0 104 -2 125 -15 125 -12 0 -15 -16 -15 -85 0 -47 -3
-85 -7 -85 -5 0 -32 39 -61 85 -49 79 -68 96 -85 78z M6930 1857 c-3 -3 -4
-60 -2 -126 3 -97 6 -121 18 -121 10 0 14 13 14 50 0 48 1 50 28 50 22 0 32
-9 52 -47 14 -26 33 -48 43 -49 22 -3 22 3 -8 55 l-26 44 21 19 c27 25 27 79
0 103 -20 18 -128 34 -140 22z m112 -44 c38 -34 15 -73 -44 -73 l-38 0 0 45
c0 44 1 45 32 45 17 0 40 -7 50 -17z M7220 1733 l0 -123 75 0 c60 0 75 3 75
15 0 12 -13 15 -61 15 l-60 0 3 43 3 42 48 0 c31 0 47 4 47 13 0 8 -17 12 -50
12 l-50 0 0 40 0 40 60 0 c48 0 60 3 60 16 0 13 -12 15 -75 12 l-75 -3 0 -122z
M7510 1847 c-20 -10 -25 -20 -25 -52 0 -38 2 -41 54 -66 30 -15 58 -34 63 -43
23 -42 -56 -65 -89 -26 -20 23 -43 26 -43 6 0 -22 49 -56 82 -56 31 0 68 16
80 34 13 20 8 63 -8 77 -9 8 -35 21 -57 29 -49 18 -66 42 -48 64 18 22 58 20
78 -4 20 -23 43 -26 43 -6 0 22 -49 56 -79 56 -14 0 -37 -6 -51 -13z M7760
1735 c0 -104 2 -125 15 -125 13 0 15 21 15 125 0 104 -2 125 -15 125 -13 0
-15 -21 -15 -125z M7928 1853 c-2 -5 -3 -60 -3 -123 l0 -115 73 -3 c59 -2 72
0 72 13 0 12 -12 15 -55 15 l-55 0 0 110 c0 89 -3 110 -14 110 -8 0 -16 -3
-18 -7z M8189 1856 c-2 -2 -3 -59 -1 -125 3 -97 6 -121 18 -121 11 0 14 23 14
125 0 97 -3 125 -13 125 -8 0 -16 -2 -18 -4z M8354 1847 c-2 -7 -3 -62 -2
-123 l3 -109 78 -3 c64 -2 77 0 77 13 0 12 -13 15 -60 15 l-60 0 0 45 0 45 50
0 c28 0 50 5 50 10 0 6 -22 10 -50 10 l-50 0 0 40 0 40 61 0 c44 0 60 3 57 13
-7 18 -147 22 -154 4z M8620 1735 c0 -104 2 -125 15 -125 12 0 15 16 15 86 0
50 4 84 10 82 5 -1 31 -39 57 -83 34 -57 54 -80 68 -80 19 0 20 7 20 120 0
105 -2 120 -17 123 -15 3 -18 -8 -20 -85 l-3 -88 -57 88 c-80 121 -88 118 -88
-38z M8969 1845 c-36 -20 -52 -64 -47 -131 6 -67 28 -93 86 -101 36 -5 45 -2
72 25 16 17 30 35 30 41 0 20 -28 11 -44 -14 -20 -30 -65 -34 -89 -7 -25 27
-23 133 1 155 28 25 69 21 88 -8 16 -25 44 -34 44 -14 0 6 -13 24 -29 40 -33
32 -70 37 -112 14z M9220 1736 l0 -126 75 0 c59 0 75 3 75 15 0 10 -15 15 -57
17 l-58 3 -1 35 c-1 42 8 50 64 50 23 0 42 5 42 10 0 6 -22 10 -49 10 -28 0
-52 3 -54 8 -3 4 -2 22 0 40 5 32 6 32 59 32 39 0 54 4 54 14 0 10 -20 14 -75
15 l-75 2 0 -125z M9920 1736 c0 -105 2 -126 15 -126 12 0 15 16 15 85 0 47 3
85 8 85 4 0 30 -37 57 -83 36 -58 56 -82 70 -82 19 0 20 7 20 120 0 106 -2
120 -17 123 -16 3 -18 -6 -18 -82 0 -47 -3 -86 -7 -86 -5 1 -30 38 -58 83 -27
45 -58 83 -67 85 -16 3 -18 -8 -18 -122z M10734 1848 c-5 -7 -25 -56 -45 -108
-20 -52 -40 -103 -44 -112 -5 -14 -2 -18 13 -18 13 0 24 10 31 31 10 29 12 30
63 27 46 -3 53 -6 58 -28 6 -26 41 -42 39 -18 -1 27 -84 232 -96 235 -6 2 -15
-2 -19 -9z m34 -87 c7 -21 12 -43 12 -50 0 -11 -52 -16 -63 -5 -6 7 24 94 34
94 3 0 11 -17 17 -39z M10960 1735 c0 -104 2 -125 15 -125 13 0 15 21 15 125
0 104 -2 125 -15 125 -13 0 -15 -21 -15 -125z M11542 1748 c-23 -62 -42 -119
-42 -125 0 -25 28 -12 39 18 10 29 12 30 63 27 46 -3 53 -6 58 -28 4 -16 14
-26 28 -28 l22 -3 -21 53 c-12 29 -33 84 -48 123 -15 38 -33 71 -41 73 -11 2
-28 -32 -58 -110z m79 7 c9 -24 14 -47 11 -50 -7 -7 -57 -6 -64 1 -7 7 21 94
31 94 3 0 13 -20 22 -45z M11800 1731 l0 -124 65 6 c74 5 105 25 105 65 0 14
-8 34 -17 44 -13 14 -14 21 -5 30 14 14 15 57 2 78 -6 10 -33 16 -80 20 l-70
5 0 -124z m111 89 c39 -21 10 -70 -42 -70 -27 0 -29 2 -29 40 0 36 2 40 26 40
14 0 34 -5 45 -10z m-7 -100 c18 -6 26 -17 26 -33 0 -32 -18 -47 -57 -47 -32
0 -33 2 -33 38 0 54 12 62 64 42z M12120 1847 c-38 -19 -51 -54 -47 -125 4
-74 24 -101 84 -109 103 -14 154 138 73 219 -31 31 -69 36 -110 15z m85 -31
c13 -10 20 -30 23 -74 4 -51 1 -63 -17 -81 -48 -48 -102 -11 -103 73 -2 79 46
119 97 82z M12380 1734 c0 -101 2 -121 15 -121 11 0 15 12 15 49 0 46 1 48 28
48 24 0 32 -7 52 -50 16 -33 30 -50 42 -50 23 0 23 3 -8 56 l-27 45 22 23 c21
22 28 70 13 93 -12 20 -62 34 -108 31 l-44 -3 0 -121z m115 76 c15 -17 16 -24
7 -45 -10 -21 -19 -25 -52 -25 l-40 0 0 45 c0 44 0 45 33 45 21 0 41 -8 52
-20z M12715 1848 c-2 -7 -22 -61 -45 -121 -22 -59 -40 -109 -40 -112 0 -3 9
-5 19 -5 13 0 21 9 26 30 6 29 9 30 59 30 48 0 52 -2 63 -30 10 -27 43 -43 43
-21 0 5 -20 60 -44 122 -28 73 -49 115 -60 117 -9 2 -18 -2 -21 -10z m35 -73
c5 -14 13 -37 16 -50 6 -23 3 -25 -30 -25 -20 0 -36 4 -36 10 0 13 31 90 36
90 3 0 9 -11 14 -25z M12900 1844 c0 -9 12 -14 35 -14 l34 0 3 -107 c3 -93 5
-108 21 -111 15 -3 17 7 17 107 l0 111 40 0 c31 0 38 3 33 15 -8 22 -183 20
-183 -1z M13220 1847 c-35 -18 -50 -53 -50 -119 0 -79 28 -113 95 -113 39 0
51 5 71 28 20 24 24 39 24 93 0 59 -3 68 -29 95 -32 32 -69 37 -111 16z m89
-43 c29 -36 29 -116 1 -144 -49 -49 -105 -9 -105 75 0 87 59 126 104 69z
M13475 1848 c-3 -8 -4 -63 -3 -124 2 -89 6 -109 18 -109 11 0 16 13 18 48 3
42 6 47 27 47 19 0 30 -11 50 -50 14 -27 32 -50 40 -50 20 0 19 13 -6 61 l-20
41 20 22 c26 28 27 67 2 97 -14 18 -31 23 -79 27 -47 3 -63 1 -67 -10z m119
-39 c26 -37 3 -69 -50 -69 -35 0 -49 25 -37 68 8 30 65 31 87 1z M13720 1852
c0 -4 18 -40 40 -80 30 -54 40 -85 40 -118 0 -32 4 -44 15 -44 11 0 15 11 15
42 0 30 12 65 41 121 22 43 38 81 35 84 -13 14 -40 -11 -59 -57 -11 -28 -24
-50 -28 -50 -4 0 -20 23 -36 52 -15 28 -36 53 -45 54 -10 1 -18 -1 -18 -4z
M4390 1729 c0 -109 2 -120 18 -117 15 3 17 18 20 121 3 112 2 117 -18 117 -19
0 -20 -6 -20 -121z M9685 1833 c-23 -59 -75 -207 -75 -214 0 -20 20 -7 35 21
14 27 20 30 66 30 47 0 51 -2 60 -30 11 -29 39 -42 39 -18 0 6 -19 60 -42 120
-30 80 -46 108 -58 108 -10 0 -21 -8 -25 -17z m48 -77 c8 -25 13 -47 9 -50 -7
-7 -57 -8 -64 -1 -7 7 24 95 33 95 4 0 14 -20 22 -44z M10230 1730 l0 -120 29
0 c112 0 169 67 141 169 -14 51 -45 71 -115 71 l-55 0 0 -120z m107 85 c25
-17 39 -71 29 -110 -9 -37 -42 -65 -76 -65 l-30 0 0 95 0 95 28 0 c15 0 37 -7
49 -15z M11262 1733 l3 -118 73 -3 c59 -2 72 0 72 13 0 12 -12 15 -55 15 l-55
0 0 105 c0 99 -1 105 -20 105 -20 0 -21 -5 -18 -117z"/>
</g>
<g transform="translate(0.000000,941.000000) scale(0.100000,-0.100000)"
fill="#10868f" stroke="none">
<path d="M8277 8077 c-42 -24 -80 -78 -71 -102 5 -13 4 -16 -4 -11 -9 5 -12
-8 -12 -46 1 -132 126 -222 241 -171 57 25 112 87 106 119 -2 13 0 21 4 18 5
-3 9 13 9 36 0 23 -4 39 -9 36 -5 -4 -7 3 -4 14 3 12 0 20 -6 20 -7 0 -10 4
-7 9 7 11 -38 67 -68 83 -35 20 -141 17 -179 -5z m-16 -294 c13 -16 12 -17 -3
-4 -10 7 -18 15 -18 17 0 8 8 3 21 -13z M7996 7865 c-163 -36 -316 -81 -461
-135 -152 -57 -368 -154 -372 -167 -2 -5 3 -17 10 -27 13 -18 17 -17 93 19
255 121 526 212 774 260 47 9 88 20 91 23 9 9 -8 52 -18 51 -4 0 -57 -11 -117
-24z M8616 7881 c-4 -5 3 -7 14 -4 23 6 26 13 6 13 -8 0 -17 -4 -20 -9z M8678
7873 c6 -2 18 -2 25 0 6 3 1 5 -13 5 -14 0 -19 -2 -12 -5z M8600 7851 c0 -6 4
-13 10 -16 6 -3 7 1 4 9 -7 18 -14 21 -14 7z M8778 7853 c7 -3 16 -2 19 1 4 3
-2 6 -13 5 -11 0 -14 -3 -6 -6z M8658 7823 c7 -3 16 -2 19 1 4 3 -2 6 -13 5
-11 0 -14 -3 -6 -6z M9300 7690 c8 -5 20 -10 25 -10 6 0 3 5 -5 10 -8 5 -19
10 -25 10 -5 0 -3 -5 5 -10z M9370 7660 c8 -5 20 -10 25 -10 6 0 3 5 -5 10 -8
5 -19 10 -25 10 -5 0 -3 -5 5 -10z M6908 7620 c-84 -26 -138 -94 -138 -173 0
-111 75 -187 185 -187 53 0 89 16 126 57 40 42 49 66 49 125 0 42 -6 64 -29
99 -40 64 -127 100 -193 79z M9763 7623 c9 -2 25 -2 35 0 9 3 1 5 -18 5 -19 0
-27 -2 -17 -5z M9350 7610 c8 -5 20 -10 25 -10 6 0 3 5 -5 10 -8 5 -19 10 -25
10 -5 0 -3 -5 5 -10z M9510 7596 c0 -2 7 -7 16 -10 8 -3 12 -2 9 4 -6 10 -25
14 -25 6z M9644 7568 l-19 -23 23 19 c21 18 27 26 19 26 -2 0 -12 -10 -23 -22z
M9905 7570 c10 -11 20 -20 23 -20 3 0 -3 9 -13 20 -10 11 -20 20 -23 20 -3 0
3 -9 13 -20z M9514 7535 c16 -10 32 -13 37 -8 5 5 1 9 -9 9 -9 1 -26 4 -37 8
-11 4 -7 0 9 -9z M9951 7394 c0 -11 3 -14 6 -6 3 7 2 16 -1 19 -3 4 -6 -2 -5
-13z M6683 7162 c-121 -146 -246 -322 -329 -461 -41 -69 -74 -128 -74 -132 0
-5 9 -13 20 -19 18 -9 23 -5 48 36 95 164 291 442 406 578 47 55 55 70 46 82
-7 8 -18 14 -24 14 -6 0 -48 -44 -93 -98z M10000 7215 c13 -14 26 -25 28 -25
3 0 -5 11 -18 25 -13 14 -26 25 -28 25 -3 0 5 -11 18 -25z M8275 6993 l0 -227
33 -19 c17 -10 32 -16 32 -13 0 3 -13 12 -30 21 l-30 15 -3 225 -3 225 1 -227z
M10055 7150 c10 -11 20 -20 23 -20 3 0 -3 9 -13 20 -10 11 -20 20 -23 20 -3 0
3 -9 13 -20z M7854 7144 c-18 -14 -18 -15 4 -4 12 6 22 13 22 15 0 8 -5 6 -26
-11z M10045 7080 c10 -11 20 -20 23 -20 3 0 -3 9 -13 20 -10 11 -20 20 -23 20
-3 0 3 -9 13 -20z M7678 7054 c-38 -20 -36 -28 2 -9 17 9 30 18 30 20 0 7 -1
6 -32 -11z M7623 6890 c0 -30 2 -43 4 -27 2 15 2 39 0 55 -2 15 -4 2 -4 -28z
M6120 6518 c-79 -22 -130 -90 -130 -172 0 -108 75 -186 180 -186 127 0 216
135 166 253 -17 43 -76 93 -123 106 -44 13 -47 12 -93 -1z M10553 6523 c9 -2
23 -2 30 0 6 3 -1 5 -18 5 -16 0 -22 -2 -12 -5z M10685 6470 c10 -11 20 -20
23 -20 3 0 -3 9 -13 20 -10 11 -20 20 -23 20 -3 0 3 -9 13 -20z M7622 6450 c0
-14 2 -19 5 -12 2 6 2 18 0 25 -3 6 -5 1 -5 -13z M8982 5653 l-2 -733 -57 1
c-32 0 -93 4 -135 7 l-78 8 0 -68 0 -68 63 0 c34 0 152 -7 262 -15 556 -43
1059 -123 1565 -251 118 -30 223 -57 233 -60 9 -3 17 -1 17 4 0 12 -173 86
-320 137 -128 45 -469 141 -533 150 l-47 7 -2 457 -3 456 -2 -454 -3 -453 -38
6 c-79 15 -71 -30 -75 424 l-2 407 -3 -409 c-2 -325 -5 -407 -15 -403 -14 5
-223 40 -357 60 l-85 12 -5 495 -5 495 -3 -494 -2 -494 -37 7 c-21 3 -46 6
-55 6 -15 0 -18 13 -21 98 l-3 97 -2 -99 c-2 -97 -2 -98 -25 -92 -12 3 -66 8
-120 12 l-97 7 -3 736 -2 736 -3 -732z M10381 6364 c0 -11 3 -14 6 -6 3 7 2
16 -1 19 -3 4 -6 -2 -5 -13z M8263 6342 c-227 -81 -283 -360 -106 -522 155
-142 398 -87 486 108 26 60 28 158 4 229 -52 150 -234 238 -384 185z m142
-113 c116 -32 174 -150 126 -254 -85 -183 -361 -130 -361 70 0 25 6 61 14 79
17 41 72 87 123 103 49 15 51 15 98 2z M10381 6314 c0 -11 3 -14 6 -6 3 7 2
16 -1 19 -3 4 -6 -2 -5 -13z M10430 6215 c13 -14 26 -25 28 -25 3 0 -5 11 -18
25 -13 14 -26 25 -28 25 -3 0 5 -11 18 -25z M10477 6179 c7 -7 15 -10 18 -7 3
3 -2 9 -12 12 -14 6 -15 5 -6 -5z M10518 6163 c7 -3 16 -2 19 1 4 3 -2 6 -13
5 -11 0 -14 -3 -6 -6z M10598 6163 c7 -3 16 -2 19 1 4 3 -2 6 -13 5 -11 0 -14
-3 -6 -6z M7624 6055 c0 -55 1 -76 3 -47 2 29 2 74 0 100 -2 26 -3 2 -3 -53z
M9233 5975 c0 -33 2 -45 4 -27 2 18 2 45 0 60 -2 15 -4 0 -4 -33z M7373 5865
c0 -38 2 -53 4 -32 2 20 2 52 0 70 -2 17 -4 1 -4 -38z M7623 5745 c0 -38 2
-53 4 -32 2 20 2 52 0 70 -2 17 -4 1 -4 -38z M6783 5775 c-3 -9 -3 -18 -1 -21
3 -3 8 4 11 16 6 23 -1 27 -10 5z M7372 5318 l-2 -437 -32 -6 c-18 -3 -105
-16 -193 -30 -88 -13 -177 -27 -197 -31 l-38 -7 -3 454 -2 454 -3 -456 -2
-456 -147 -32 c-82 -18 -219 -53 -307 -77 -233 -67 -576 -195 -576 -216 0 -5
8 -7 18 -4 148 45 626 155 832 190 430 74 985 136 1224 136 l54 0 7 103 c3 56
5 181 3 277 l-4 175 -2 -213 -2 -213 -57 2 c-32 1 -74 -1 -93 -4 -19 -3 -76
-8 -127 -11 -81 -5 -92 -4 -96 12 -4 16 -5 16 -6 0 -1 -19 -20 -23 -136 -33
-38 -4 -78 -8 -87 -11 -17 -5 -18 22 -21 433 l-2 438 -3 -437z M9233 5680 c0
-25 2 -35 4 -22 2 12 2 32 0 45 -2 12 -4 2 -4 -23z M8318 5693 c23 -2 59 -2
80 0 20 2 1 4 -43 4 -44 0 -61 -2 -37 -4z M8478 5683 c7 -3 16 -2 19 1 4 3 -2
6 -13 5 -11 0 -14 -3 -6 -6z M6783 5640 c0 -25 2 -35 4 -22 2 12 2 32 0 45 -2
12 -4 2 -4 -23z M8084 5634 c-18 -14 -18 -15 4 -4 12 6 22 13 22 15 0 8 -5 6
-26 -11z M8670 5606 c0 -2 8 -10 18 -17 15 -13 16 -12 3 4 -13 16 -21 21 -21
13z M9233 5550 c0 -30 2 -43 4 -27 2 15 2 39 0 55 -2 15 -4 2 -4 -28z M7623
5550 c0 -25 2 -35 4 -22 2 12 2 32 0 45 -2 12 -4 2 -4 -23z M7989 5563 l-24
-28 28 24 c15 14 27 26 27 28 0 8 -8 1 -31 -24z M8268 5563 c7 -3 16 -2 19 1
4 3 -2 6 -13 5 -11 0 -14 -3 -6 -6z M8438 5563 c7 -3 16 -2 19 1 4 3 -2 6 -13
5 -11 0 -14 -3 -6 -6z M6783 5485 c0 -44 2 -61 4 -37 2 23 2 59 0 80 -2 20 -4
1 -4 -43z M8600 5506 c0 -2 8 -10 18 -17 15 -13 16 -12 3 4 -13 16 -21 21 -21
13z M9233 5415 c0 -22 2 -30 4 -17 2 12 2 30 0 40 -3 9 -5 -1 -4 -23z M6784
5260 c0 -63 1 -89 3 -57 2 31 2 83 0 115 -2 31 -3 5 -3 -58z M7881 5344 c0
-11 3 -14 6 -6 3 7 2 16 -1 19 -3 4 -6 -2 -5 -13z M9233 5245 c0 -38 2 -53 4
-32 2 20 2 52 0 70 -2 17 -4 1 -4 -38z M7882 5065 c0 -16 2 -22 5 -12 2 9 2
23 0 30 -3 6 -5 -1 -5 -18z M6167 4093 l103 -4 3 -562 2 -562 0 565 0 565
-105 1 -105 0 102 -3z M7674 4086 c-3 -7 -3 -35 -1 -62 l3 -49 2 57 2 57 98 4
97 3 -98 2 c-75 2 -99 -1 -103 -12z M8955 4088 c-3 -7 -4 -409 -3 -893 l3
-880 3 887 2 888 553 3 552 2 -553 3 c-435 1 -554 -1 -557 -10z M4087 4083
c-3 -5 27 -7 66 -5 122 4 136 9 35 10 -53 1 -99 -1 -101 -5z M10153 4083 c9
-2 23 -2 30 0 6 3 -1 5 -18 5 -16 0 -22 -2 -12 -5z M12477 4083 c-3 -5 23 -7
56 -5 111 5 124 9 35 10 -48 1 -89 -1 -91 -5z M10228 4073 c7 -3 16 -2 19 1 4
3 -2 6 -13 5 -11 0 -14 -3 -6 -6z M6063 3980 c0 -30 2 -43 4 -27 2 15 2 39 0
55 -2 15 -4 2 -4 -28z M7675 3485 c0 -264 1 -371 2 -237 2 134 2 350 0 480 -1
130 -2 21 -2 -243z M9423 3913 c42 -2 112 -2 155 0 42 1 7 3 -78 3 -85 0 -120
-2 -77 -3z M9788 3913 c7 -3 16 -2 19 1 4 3 -2 6 -13 5 -11 0 -14 -3 -6 -6z
M9165 3535 l0 -370 443 0 442 0 -440 2 -440 3 -3 368 -2 367 0 -370z M10118
3903 c6 -2 18 -2 25 0 6 3 1 5 -13 5 -14 0 -19 -2 -12 -5z M10178 3893 c7 -3
16 -2 19 1 4 3 -2 6 -13 5 -11 0 -14 -3 -6 -6z M10300 3856 c0 -2 7 -7 16 -10
8 -3 12 -2 9 4 -6 10 -25 14 -25 6z M10370 3817 c0 -2 15 -16 33 -33 l32 -29
-29 33 c-28 30 -36 37 -36 29z M10692 3650 c0 -14 2 -19 5 -12 2 6 2 18 0 25
-3 6 -5 1 -5 -13z M10471 3644 c0 -11 3 -14 6 -6 3 7 2 16 -1 19 -3 4 -6 -2
-5 -13z M10483 3555 c0 -22 2 -30 4 -17 2 12 2 30 0 40 -3 9 -5 -1 -4 -23z
M10471 3464 c0 -11 3 -14 6 -6 3 7 2 16 -1 19 -3 4 -6 -2 -5 -13z M10691 3464
c0 -11 3 -14 6 -6 3 7 2 16 -1 19 -3 4 -6 -2 -5 -13z M6062 3350 c0 -14 2 -19
5 -12 2 6 2 18 0 25 -3 6 -5 1 -5 -13z M10399 3313 c-13 -16 -12 -17 4 -4 16
13 21 21 13 21 -2 0 -10 -8 -17 -17z M10354 3268 l-19 -23 23 19 c21 18 27 26
19 26 -2 0 -12 -10 -23 -22z M10300 3235 c-14 -8 -20 -14 -14 -15 5 0 19 7 30
15 24 18 16 19 -16 0z M10545 3168 l-40 -43 43 40 c23 21 42 40 42 42 0 8 -9
0 -45 -39z M10168 3183 c7 -3 16 -2 19 1 4 3 -2 6 -13 5 -11 0 -14 -3 -6 -6z
M10108 3173 c6 -2 18 -2 25 0 6 3 1 5 -13 5 -14 0 -19 -2 -12 -5z M6063 3035
c0 -22 2 -30 4 -17 2 12 2 30 0 40 -3 9 -5 -1 -4 -23z M10238 3013 c7 -3 16
-2 19 1 4 3 -2 6 -13 5 -11 0 -14 -3 -6 -6z M10178 3003 c6 -2 18 -2 25 0 6 3
1 5 -13 5 -14 0 -19 -2 -12 -5z M4040 2873 c-35 -65 -117 -214 -182 -332 -65
-117 -118 -215 -118 -217 0 -2 44 -4 98 -4 91 0 98 2 108 23 5 12 84 159 175
326 90 168 166 308 167 313 2 4 -38 8 -90 8 l-94 0 -64 -117z M9164 2655 c0
-187 2 -262 3 -167 2 95 2 248 0 340 -1 92 -3 14 -3 -173z M9840 2986 c0 -2 8
-10 18 -17 15 -13 16 -12 3 4 -13 16 -21 21 -21 13z M12522 2893 c29 -54 109
-204 178 -333 l126 -235 92 -3 c51 -1 92 1 92 5 0 4 -35 72 -79 152 -43 81
-122 228 -176 329 l-97 182 -94 0 -95 0 53 -97z M7872 2930 c0 -19 2 -27 5
-17 2 9 2 25 0 35 -3 9 -5 1 -5 -18z M3690 2930 c-6 -11 -8 -20 -6 -20 3 0 10
9 16 20 6 11 8 20 6 20 -3 0 -10 -9 -16 -20z M7662 2930 c0 -14 2 -19 5 -12 2
6 2 18 0 25 -3 6 -5 1 -5 -13z M6281 2914 c0 -11 3 -14 6 -6 3 7 2 16 -1 19
-3 4 -6 -2 -5 -13z M13050 2910 c6 -11 13 -20 16 -20 2 0 0 9 -6 20 -6 11 -13
20 -16 20 -2 0 0 -9 6 -20z M6071 2904 c0 -11 3 -14 6 -6 3 7 2 16 -1 19 -3 4
-6 -2 -5 -13z M7861 2864 c0 -11 3 -14 6 -6 3 7 2 16 -1 19 -3 4 -6 -2 -5 -13z
M4720 2820 c6 -11 13 -20 16 -20 2 0 0 9 -6 20 -6 11 -13 20 -16 20 -2 0 0 -9
6 -20z M13120 2780 c6 -11 13 -20 16 -20 2 0 0 9 -6 20 -6 11 -13 20 -16 20
-2 0 0 -9 6 -20z M13350 2770 c6 -11 13 -20 16 -20 2 0 0 9 -6 20 -6 11 -13
20 -16 20 -2 0 0 -9 6 -20z M10565 2550 c126 -126 232 -230 235 -230 3 0 -99
104 -225 230 -126 127 -232 230 -235 230 -3 0 99 -103 225 -230z M5000 2720
c6 -11 13 -20 16 -20 2 0 0 9 -6 20 -6 11 -13 20 -16 20 -2 0 0 -9 6 -20z
M11950 2680 c-6 -11 -8 -20 -6 -20 3 0 10 9 16 20 6 11 8 20 6 20 -3 0 -10 -9
-16 -20z M7519 2643 c-13 -16 -12 -17 4 -4 16 13 21 21 13 21 -2 0 -10 -8 -17
-17z M13200 2630 c6 -11 13 -20 16 -20 2 0 0 9 -6 20 -6 11 -13 20 -16 20 -2
0 0 -9 6 -20z M5060 2610 c6 -11 13 -20 16 -20 2 0 0 9 -6 20 -6 11 -13 20
-16 20 -2 0 0 -9 6 -20z M6440 2626 c0 -2 8 -10 18 -17 15 -13 16 -12 3 4 -13
16 -21 21 -21 13z M4850 2580 c6 -11 13 -20 16 -20 2 0 0 9 -6 20 -6 11 -13
20 -16 20 -2 0 0 -9 6 -20z M6250 2528 c41 -45 50 -53 50 -45 0 2 -21 23 -47
47 l-48 45 45 -47z M13470 2550 c6 -11 13 -20 16 -20 2 0 0 9 -6 20 -6 11 -13
20 -16 20 -2 0 0 -9 6 -20z M13260 2520 c6 -11 13 -20 16 -20 2 0 0 9 -6 20
-6 11 -13 20 -16 20 -2 0 0 -9 6 -20z M5120 2500 c6 -11 13 -20 16 -20 2 0 0
9 -6 20 -6 11 -13 20 -16 20 -2 0 0 -9 6 -20z M6698 2503 c7 -3 16 -2 19 1 4
3 -2 6 -13 5 -11 0 -14 -3 -6 -6z M7228 2503 c7 -3 16 -2 19 1 4 3 -2 6 -13 5
-11 0 -14 -3 -6 -6z M6748 2493 c6 -2 18 -2 25 0 6 3 1 5 -13 5 -14 0 -19 -2
-12 -5z M7178 2493 c7 -3 16 -2 19 1 4 3 -2 6 -13 5 -11 0 -14 -3 -6 -6z
M6838 2483 c12 -2 32 -2 45 0 12 2 2 4 -23 4 -25 0 -35 -2 -22 -4z M7083 2483
c9 -2 25 -2 35 0 9 3 1 5 -18 5 -19 0 -27 -2 -17 -5z M7619 2463 c-13 -16 -12
-17 4 -4 16 13 21 21 13 21 -2 0 -10 -8 -17 -17z M10385 2440 c10 -11 20 -20
23 -20 3 0 -3 9 -13 20 -10 11 -20 20 -23 20 -3 0 3 -9 13 -20z M4930 2430 c6
-11 13 -20 16 -20 2 0 0 9 -6 20 -6 11 -13 20 -16 20 -2 0 0 -9 6 -20z M3400
2400 c-6 -11 -8 -20 -6 -20 3 0 10 9 16 20 6 11 8 20 6 20 -3 0 -10 -9 -16
-20z M10465 2360 c21 -22 41 -40 44 -40 3 0 -13 18 -34 40 -21 22 -41 40 -44
40 -3 0 13 -18 34 -40z M11560 2380 c-6 -11 -8 -20 -6 -20 3 0 10 9 16 20 6
11 8 20 6 20 -3 0 -10 -9 -16 -20z M5190 2370 c6 -11 13 -20 16 -20 2 0 0 9
-6 20 -6 11 -13 20 -16 20 -2 0 0 -9 6 -20z M13586 2337 c3 -10 9 -15 12 -12
3 3 0 11 -7 18 -10 9 -11 8 -5 -6z M6638 2323 c7 -3 16 -2 19 1 4 3 -2 6 -13
5 -11 0 -14 -3 -6 -6z M6688 2313 c6 -2 18 -2 25 0 6 3 1 5 -13 5 -14 0 -19
-2 -12 -5z M7238 2313 c7 -3 16 -2 19 1 4 3 -2 6 -13 5 -11 0 -14 -3 -6 -6z
M6758 2303 c6 -2 18 -2 25 0 6 3 1 5 -13 5 -14 0 -19 -2 -12 -5z M7168 2303
c6 -2 18 -2 25 0 6 3 1 5 -13 5 -14 0 -19 -2 -12 -5z M6913 2293 c37 -2 97 -2
135 0 37 2 6 3 -68 3 -74 0 -105 -1 -67 -3z M3244 1735 c0 -71 1 -99 3 -62 2
37 2 96 0 130 -2 34 -3 4 -3 -68z M3338 1853 c7 -3 16 -2 19 1 4 3 -2 6 -13 5
-11 0 -14 -3 -6 -6z M3868 1853 c12 -2 30 -2 40 0 9 3 -1 5 -23 4 -22 0 -30
-2 -17 -4z M3938 1853 c7 -3 16 -2 19 1 4 3 -2 6 -13 5 -11 0 -14 -3 -6 -6z
M4091 1843 c-1 -21 3 -23 42 -21 l42 1 -37 4 c-24 3 -38 10 -41 21 -3 12 -5
11 -6 -5z M4258 1853 c6 -2 18 -2 25 0 6 3 1 5 -13 5 -14 0 -19 -2 -12 -5z
M4398 1853 c6 -2 18 -2 25 0 6 3 1 5 -13 5 -14 0 -19 -2 -12 -5z M4844 1735
c0 -71 1 -99 3 -62 2 37 2 96 0 130 -2 34 -3 4 -3 -68z M4938 1853 c12 -2 32
-2 45 0 12 2 2 4 -23 4 -25 0 -35 -2 -22 -4z M5450 1772 l5 -87 3 79 c2 44 -1
83 -5 87 -4 4 -6 -31 -3 -79z M5668 1853 c6 -2 18 -2 25 0 6 3 1 5 -13 5 -14
0 -19 -2 -12 -5z M5853 1805 c0 -33 2 -45 4 -27 2 18 2 45 0 60 -2 15 -4 0 -4
-33z M5960 1856 c0 -2 9 -6 20 -9 11 -3 18 -1 14 4 -5 9 -34 13 -34 5z M6588
1775 c-2 -47 0 -85 5 -85 4 0 7 38 7 85 0 47 -2 85 -4 85 -3 0 -6 -38 -8 -85z
M7214 1735 c0 -71 1 -99 3 -62 2 37 2 96 0 130 -2 34 -3 4 -3 -68z M7238 1853
c7 -3 16 -2 19 1 4 3 -2 6 -13 5 -11 0 -14 -3 -6 -6z M7370 1847 c0 -13 -13
-17 -62 -20 l-63 -3 63 -2 c48 -2 64 1 69 13 3 9 3 19 -1 22 -3 4 -6 -1 -6
-10z M7794 1735 c0 -71 1 -99 3 -62 2 37 2 96 0 130 -2 34 -3 4 -3 -68z M8614
1735 c0 -71 1 -99 3 -62 2 37 2 96 0 130 -2 34 -3 4 -3 -68z M8965 1850 c-3
-6 1 -7 9 -4 18 7 21 14 7 14 -6 0 -13 -4 -16 -10z M9214 1735 c0 -71 1 -99 3
-62 2 37 2 96 0 130 -2 34 -3 4 -3 -68z M9370 1847 c0 -12 -13 -17 -57 -20
l-58 -3 58 -2 c44 -2 59 2 64 13 3 9 3 19 -1 22 -3 4 -6 -1 -6 -10z M9685
1850 c-4 -6 -4 -14 -1 -17 3 -4 6 -1 6 5 0 15 36 16 43 2 3 -6 4 -5 3 2 -3 17
-42 23 -51 8z M9914 1735 c0 -71 1 -99 3 -62 2 37 2 96 0 130 -2 34 -3 4 -3
-68z M10222 1733 l2 -128 3 122 4 122 57 4 57 3 -62 2 -63 2 2 -127z M10954
1735 c0 -71 1 -99 3 -62 2 37 2 96 0 130 -2 34 -3 4 -3 -68z M11268 1853 c6
-2 18 -2 25 0 6 3 1 5 -13 5 -14 0 -19 -2 -12 -5z M11616 1847 c3 -10 9 -15
12 -12 3 3 0 11 -7 18 -10 9 -11 8 -5 -6z M11825 1854 c47 -7 113 -8 108 -1
-2 4 -32 6 -66 6 -34 -1 -53 -3 -42 -5z M12374 1735 c0 -71 1 -99 3 -62 2 37
2 96 0 130 -2 34 -3 4 -3 -68z M12480 1856 c0 -2 9 -6 20 -9 11 -3 18 -1 14 4
-5 9 -34 13 -34 5z M12894 1840 c1 -10 13 -15 41 -16 l40 -1 -37 4 c-20 2 -39
10 -41 16 -2 7 -3 5 -3 -3z M13901 1833 c-10 -26 -10 -27 4 -9 8 11 15 23 15
28 0 15 -7 8 -19 -19z M5710 1846 c0 -2 8 -10 18 -17 15 -13 16 -12 3 4 -13
16 -21 21 -21 13z M6634 1730 c0 -69 1 -97 3 -62 2 34 2 90 0 125 -2 34 -3 6
-3 -63z M7060 1846 c0 -2 8 -10 18 -17 15 -13 16 -12 3 4 -13 16 -21 21 -21
13z M7610 1846 c0 -2 8 -10 18 -17 15 -13 16 -12 3 4 -13 16 -21 21 -21 13z
M7753 1785 c0 -38 2 -53 4 -32 2 20 2 52 0 70 -2 17 -4 1 -4 -38z M7962 1748
l-2 -108 54 0 c35 0 56 -5 59 -12 2 -8 3 -7 3 2 -1 11 -16 16 -53 18 l-52 3
-4 102 -3 102 -2 -107z M8224 1735 c0 -66 1 -92 3 -57 2 34 2 88 0 120 -2 31
-3 3 -3 -63z M9070 1846 c0 -2 8 -10 18 -17 15 -13 16 -12 3 4 -13 16 -21 21
-21 13z M10994 1730 c0 -69 1 -97 3 -62 2 34 2 90 0 125 -2 34 -3 6 -3 -63z
M12220 1846 c0 -2 8 -10 18 -17 15 -13 16 -12 3 4 -13 16 -21 21 -21 13z
M13320 1846 c0 -2 8 -10 18 -17 15 -13 16 -12 3 4 -13 16 -21 21 -21 13z
M13621 1833 c7 -12 15 -20 18 -17 3 2 -3 12 -13 22 -17 16 -18 16 -5 -5z
M6924 1725 c0 -66 1 -92 3 -57 2 34 2 88 0 120 -2 31 -3 3 -3 -63z M7923 1805
c0 -22 2 -30 4 -17 2 12 2 30 0 40 -3 9 -5 -1 -4 -23z M8184 1725 c0 -66 1
-92 3 -57 2 34 2 88 0 120 -2 31 -3 3 -3 -63z M3284 1817 c-3 -8 -4 -49 -2
-93 l3 -79 30 -1 c29 -2 29 -2 3 3 -28 4 -28 5 -28 88 0 84 0 84 28 88 l27 4
-28 2 c-15 0 -30 -5 -33 -12z M3888 1823 c12 -2 30 -2 40 0 9 3 -1 5 -23 4
-22 0 -30 -2 -17 -4z M4228 1823 c12 -2 32 -2 45 0 12 2 2 4 -23 4 -25 0 -35
-2 -22 -4z M4884 1816 c-3 -8 -4 -25 -2 -38 3 -20 9 -23 53 -24 l50 -1 -47 4
c-45 4 -48 6 -48 33 0 28 2 29 58 33 l57 3 -58 2 c-42 1 -59 -2 -63 -12z
M5640 1823 c19 -3 42 -10 50 -16 13 -10 13 -10 1 6 -9 11 -26 16 -50 15 l-36
-1 35 -4z M5913 1823 c9 -2 25 -2 35 0 9 3 1 5 -18 5 -19 0 -27 -2 -17 -5z
M6960 1822 c0 -4 16 -6 35 -4 19 2 35 6 35 8 0 2 -16 4 -35 4 -19 0 -35 -4
-35 -8z M8418 1823 c17 -2 47 -2 65 0 17 2 3 4 -33 4 -36 0 -50 -2 -32 -4z
M8975 1810 c-26 -28 -15 -31 12 -3 12 13 19 23 14 23 -4 0 -16 -9 -26 -20z
M9031 1827 c2 -1 13 -9 24 -17 19 -14 19 -14 6 3 -7 9 -18 17 -24 17 -6 0 -8
-1 -6 -3z M10260 1735 l0 -95 33 1 c30 2 30 2 5 6 -28 4 -28 4 -28 88 0 84 0
84 28 88 25 4 25 4 -5 6 l-33 1 0 -95z M11853 1823 c9 -2 25 -2 35 0 9 3 1 5
-18 5 -19 0 -27 -2 -17 -5z M11959 1798 c4 -28 6 -29 9 -9 2 13 0 27 -5 32 -6
6 -7 -3 -4 -23z M12129 1813 c-13 -17 -13 -17 6 -3 11 8 22 16 24 17 2 2 0 3
-6 3 -6 0 -17 -8 -24 -17z M12412 1783 l1 -48 4 42 c4 39 7 42 36 46 31 4 31
4 -5 5 l-38 2 2 -47z M13028 1823 c12 -2 30 -2 40 0 9 3 -1 5 -23 4 -22 0 -30
-2 -17 -4z M13236 1822 c-3 -5 8 -6 25 -4 16 2 29 6 29 8 0 8 -49 4 -54 -4z
M13540 1823 c19 -3 42 -10 50 -16 13 -10 13 -10 1 6 -9 11 -26 16 -50 15 l-36
-1 35 -4z M3350 1816 c0 -2 8 -10 18 -17 15 -13 16 -12 3 4 -13 16 -21 21 -21
13z M7472 1795 c0 -16 2 -22 5 -12 2 9 2 23 0 30 -3 6 -5 -1 -5 -18z M10330
1816 c0 -2 8 -10 18 -17 15 -13 16 -12 3 4 -13 16 -21 21 -21 13z M11917 1799
c4 -13 8 -18 11 -10 2 7 -1 18 -6 23 -8 8 -9 4 -5 -13z M5742 1785 c0 -16 2
-22 5 -12 2 9 2 23 0 30 -3 6 -5 -1 -5 -18z M6022 1790 c0 -14 2 -19 5 -12 2
6 2 18 0 25 -3 6 -5 1 -5 -13z M7092 1785 c0 -16 2 -22 5 -12 2 9 2 23 0 30
-3 6 -5 -1 -5 -18z M7511 1794 c0 -11 3 -14 6 -6 3 7 2 16 -1 19 -3 4 -6 -2
-5 -13z M12542 1785 c0 -16 2 -22 5 -12 2 9 2 23 0 30 -3 6 -5 -1 -5 -18z
M3020 1790 c0 -6 4 -9 9 -5 5 3 12 -2 14 -10 4 -12 5 -12 3 1 -1 19 -26 32
-26 14z M3610 1789 c0 -5 5 -7 10 -4 6 3 10 8 10 11 0 2 -4 4 -10 4 -5 0 -10
-5 -10 -11z M7051 1783 c0 -12 -9 -27 -18 -32 -10 -6 -13 -11 -7 -11 18 0 36
27 31 47 -4 14 -5 14 -6 -4z M12501 1784 c0 -11 3 -14 6 -6 3 7 2 16 -1 19 -3
4 -6 -2 -5 -13z M12736 1787 c3 -10 9 -15 12 -12 3 3 0 11 -7 18 -10 9 -11 8
-5 -6z M13501 1784 c0 -11 3 -14 6 -6 3 7 2 16 -1 19 -3 4 -6 -2 -5 -13z
M13641 1784 c0 -11 3 -14 6 -6 3 7 2 16 -1 19 -3 4 -6 -2 -5 -13z M3421 1774
c0 -11 3 -14 6 -6 3 7 2 16 -1 19 -3 4 -6 -2 -5 -13z M5413 1745 c0 -27 2 -38
4 -22 2 15 2 37 0 50 -2 12 -4 0 -4 -28z M13363 1735 c0 -33 2 -45 4 -27 2 18
2 45 0 60 -2 15 -4 0 -4 -33z M3383 1735 c0 -27 2 -38 4 -22 2 15 2 37 0 50
-2 12 -4 0 -4 -28z M8652 1693 l2 -88 3 83 c3 57 7 81 15 76 7 -4 8 -3 4 4
-18 30 -26 6 -24 -75z M9253 1770 c2 -11 19 -15 58 -16 l54 -1 -50 4 c-27 2
-53 10 -58 16 -6 8 -7 7 -4 -3z M9951 1693 c2 -92 6 -82 11 25 2 34 0 62 -4
62 -5 0 -7 -39 -7 -87z M13321 1764 c0 -11 3 -14 6 -6 3 7 2 16 -1 19 -3 4 -6
-2 -5 -13z M6961 1754 c0 -11 3 -14 6 -6 3 7 2 16 -1 19 -3 4 -6 -2 -5 -13z
M8913 1735 c0 -22 2 -30 4 -17 2 12 2 30 0 40 -3 9 -5 -1 -4 -23z M10363 1735
c0 -22 2 -30 4 -17 2 12 2 30 0 40 -3 9 -5 -1 -4 -23z M13163 1730 c0 -25 2
-35 4 -22 2 12 2 32 0 45 -2 12 -4 2 -4 -23z M13203 1735 c0 -22 2 -30 4 -17
2 12 2 30 0 40 -3 9 -5 -1 -4 -23z M5680 1750 c-9 -6 -10 -10 -3 -10 6 0 15 5
18 10 8 12 4 12 -15 0z M5913 1753 c9 -2 25 -2 35 0 9 3 1 5 -18 5 -19 0 -27
-2 -17 -5z M7297 1753 c38 -3 53 -9 57 -21 3 -12 4 -12 3 3 -2 17 -10 20 -57
21 l-55 1 52 -4z M8438 1753 c66 -5 67 -20 2 -27 l-50 -6 53 3 c38 1 52 6 52
17 0 11 -13 15 -55 16 l-55 1 53 -4z M11853 1753 c9 -2 25 -2 35 0 9 3 1 5
-18 5 -19 0 -27 -2 -17 -5z M12480 1750 c-9 -6 -10 -10 -3 -10 6 0 15 5 18 10
8 12 4 12 -15 0z M3984 1728 l-19 -23 23 19 c12 11 22 21 22 23 0 8 -8 2 -26
-19z M5719 1733 c-13 -16 -12 -17 4 -4 16 13 21 21 13 21 -2 0 -10 -8 -17 -17z
M12515 1730 c-10 -11 -16 -22 -14 -24 2 -2 12 7 22 20 22 29 17 32 -8 4z
M13619 1733 c-13 -16 -12 -17 4 -4 16 13 21 21 13 21 -2 0 -10 -8 -17 -17z
M7517 1729 c7 -7 15 -10 18 -7 3 3 -2 9 -12 12 -14 6 -15 5 -6 -5z M7610 1736
c0 -2 8 -10 18 -17 15 -13 16 -12 3 4 -13 16 -21 21 -21 13z M11940 1736 c0
-2 8 -10 18 -17 15 -13 16 -12 3 4 -13 16 -21 21 -21 13z M4884 1716 c-3 -8
-4 -27 -2 -43 3 -26 6 -28 58 -31 30 -2 58 -9 63 -15 6 -8 7 -7 4 3 -2 11 -20
16 -60 18 l-57 3 0 34 c0 29 4 34 28 38 l27 4 -28 2 c-16 0 -30 -5 -33 -13z
M5913 1723 c9 -2 23 -2 30 0 6 3 -1 5 -18 5 -16 0 -22 -2 -12 -5z M7055 1719
c-4 -6 -5 -12 -2 -15 2 -3 7 2 10 11 7 17 1 20 -8 4z M7278 1723 c12 -2 32 -2
45 0 12 2 2 4 -23 4 -25 0 -35 -2 -22 -4z M9293 1723 c15 -2 37 -2 50 0 12 2
0 4 -28 4 -27 0 -38 -2 -22 -4z M11858 1723 c6 -2 18 -2 25 0 6 3 1 5 -13 5
-14 0 -19 -2 -12 -5z M12700 1718 c0 -14 8 -18 38 -17 34 2 34 2 7 6 -16 3
-33 10 -37 16 -5 8 -8 6 -8 -5z M3030 1710 l-35 -7 38 -2 c20 0 37 4 37 9 0 6
-1 9 -2 9 -2 -1 -19 -5 -38 -9z M3422 1700 c0 -14 2 -19 5 -12 2 6 2 18 0 25
-3 6 -5 1 -5 -13z M3620 1710 l-35 -7 32 -2 c17 0 35 4 38 9 3 6 5 9 3 9 -2
-1 -19 -5 -38 -9z M6230 1710 l-35 -7 32 -2 c17 0 35 4 38 9 3 6 5 9 3 9 -2
-1 -19 -5 -38 -9z M9677 1708 c2 -5 17 -8 33 -8 16 0 31 3 33 8 3 4 -12 7 -33
7 -21 0 -36 -3 -33 -7z M10719 1707 c5 -5 21 -7 37 -5 27 3 26 4 -8 9 -22 3
-34 1 -29 -4z M11567 1708 c2 -5 17 -8 33 -8 16 0 31 3 33 8 3 4 -12 7 -33 7
-21 0 -36 -3 -33 -7z M13313 1683 c-10 -34 -10 -36 3 -19 12 17 20 56 11 56
-1 0 -7 -17 -14 -37z M13834 1706 c-3 -7 -4 -33 -2 -57 3 -43 4 -42 8 14 5 58
4 68 -6 43z M3888 1703 c12 -2 32 -2 45 0 12 2 2 4 -23 4 -25 0 -35 -2 -22 -4z
M5610 1706 c0 -2 13 -6 29 -8 17 -2 28 -1 25 4 -5 8 -54 12 -54 4z M6961 1663
c1 -53 6 -49 11 10 2 20 0 37 -4 37 -4 0 -8 -21 -7 -47z M12221 1694 c0 -11 3
-14 6 -6 3 7 2 16 -1 19 -3 4 -6 -2 -5 -13z M12411 1678 c2 -28 2 -29 6 -8 3
14 10 28 17 32 7 5 5 8 -6 8 -14 0 -18 -8 -17 -32z M13510 1706 c0 -2 13 -6
29 -8 17 -2 28 -1 25 4 -5 8 -54 12 -54 4z M13793 1660 c0 -30 2 -43 4 -27 2
15 2 39 0 55 -2 15 -4 2 -4 -28z M4636 1683 c-6 -14 -5 -15 5 -6 7 7 10 15 7
18 -3 3 -9 -2 -12 -12z M7639 1672 c-3 -20 -2 -29 4 -23 5 5 7 19 5 32 -3 20
-5 19 -9 -9z M7752 1675 c0 -16 2 -22 5 -12 2 9 2 23 0 30 -3 6 -5 -1 -5 -18z
M7465 1679 c-4 -6 -4 -13 -1 -16 3 -4 6 -1 6 6 0 8 8 11 20 8 11 -3 18 -1 14
4 -7 12 -31 11 -39 -2z M9053 1664 c-13 -14 -18 -24 -11 -22 10 4 45 48 37 48
-2 0 -14 -12 -26 -26z M9254 1665 c1 -17 9 -20 58 -23 43 -2 58 -7 62 -20 3
-12 4 -12 3 3 -2 17 -11 20 -59 23 -44 2 -58 7 -61 20 -3 12 -4 11 -3 -3z
M3359 1663 c-13 -16 -12 -17 4 -4 16 13 21 21 13 21 -2 0 -10 -8 -17 -17z
M7591 1657 c-13 -21 -12 -21 5 -5 10 10 16 20 13 22 -3 3 -11 -5 -18 -17z
M7922 1655 c0 -16 2 -22 5 -12 2 9 2 23 0 30 -3 6 -5 -1 -5 -18z M5270 1661
c0 -6 4 -13 10 -16 6 -3 7 1 4 9 -7 18 -14 21 -14 7z M5322 1654 c10 -10 20
-16 22 -13 3 3 -5 11 -17 18 -21 13 -21 12 -5 -5z M5389 1653 c-13 -16 -12
-17 4 -4 16 13 21 21 13 21 -2 0 -10 -8 -17 -17z M10796 1657 c3 -10 9 -15 12
-12 3 3 0 11 -7 18 -10 9 -11 8 -5 -6z M11545 1659 c-4 -6 -5 -12 -2 -15 2 -3
7 2 10 11 7 17 1 20 -8 4z M11646 1657 c3 -10 9 -15 12 -12 3 3 0 11 -7 18
-10 9 -11 8 -5 -6z M12132 1654 c10 -10 20 -16 22 -13 3 3 -5 11 -17 18 -21
13 -21 12 -5 -5z M12234 1638 l-19 -23 23 19 c21 18 27 26 19 26 -2 0 -12 -10
-23 -22z M5918 1643 c12 -2 30 -2 40 0 9 3 -1 5 -23 4 -22 0 -30 -2 -17 -4z
M6009 1633 c-13 -16 -12 -17 4 -4 16 13 21 21 13 21 -2 0 -10 -8 -17 -17z
M7307 1643 c36 -2 63 -9 66 -16 2 -7 3 -5 3 3 -1 12 -16 15 -66 16 l-65 1 62
-4z M7470 1646 c0 -2 8 -10 18 -17 15 -13 16 -12 3 4 -13 16 -21 21 -21 13z
M8418 1643 c17 -2 47 -2 65 0 17 2 3 4 -33 4 -36 0 -50 -2 -32 -4z M8998 1643
c7 -3 16 -2 19 1 4 3 -2 6 -13 5 -11 0 -14 -3 -6 -6z M9079 1633 c-13 -16 -12
-17 4 -4 16 13 21 21 13 21 -2 0 -10 -8 -17 -17z M11350 1643 c30 -2 58 -10
63 -16 6 -8 7 -7 4 3 -3 11 -19 15 -63 16 l-59 1 55 -4z M11858 1643 c12 -2
30 -2 40 0 9 3 -1 5 -23 4 -22 0 -30 -2 -17 -4z M11949 1633 c-13 -16 -12 -17
4 -4 9 7 17 15 17 17 0 8 -8 3 -21 -13z M13329 1633 c-13 -16 -12 -17 4 -4 9
7 17 15 17 17 0 8 -8 3 -21 -13z M3090 1631 c0 -6 4 -13 10 -16 6 -3 7 1 4 9
-7 18 -14 21 -14 7z M9636 1623 c-6 -14 -5 -15 5 -6 7 7 10 15 7 18 -3 3 -9
-2 -12 -12z M9811 1624 c0 -11 3 -14 6 -6 3 7 2 16 -1 19 -3 4 -6 -2 -5 -13z
M11491 1624 c0 -11 3 -14 6 -6 3 7 2 16 -1 19 -3 4 -6 -2 -5 -13z M7600 1620
c-9 -6 -10 -10 -3 -10 6 0 15 5 18 10 8 12 4 12 -15 0z M10318 1613 c7 -3 16
-2 19 1 4 3 -2 6 -13 5 -11 0 -14 -3 -6 -6z M11908 1613 c7 -3 16 -2 19 1 4 3
-2 6 -13 5 -11 0 -14 -3 -6 -6z"/>
</g>
</svg>
